<?xml version="1.0" encoding="utf-8"?>

<!DOCTYPE svg PUBLIC "-//W3C//DTD SVG 1.1//EN" "http://www.w3.org/Graphics/SVG/1.1/DTD/svg11.dtd">
<svg version="1.1" id="Layer_1" xmlns="http://www.w3.org/2000/svg" xmlns:xlink="http://www.w3.org/1999/xlink" x="0px" y="0px"
	 viewBox="0 0 1514.56 1671.344" enable-background="new 0 0 1514.56 1671.344" xml:space="preserve">
<g>
	<path fill="#FFFFFF" stroke="#FFFFFF" d="M683.21,39.09c35.807-4.257,71.949-3.555,107.932-2.997
		c102.033,4.655,202.998,33.161,292.118,83.125c45.883,25.588,88.243,57.25,126.489,93.233
		c22.591,22.495,44.321,45.979,63.229,71.694c33.99,45.532,61.619,95.927,80.479,149.574c11.256,30.419,18.972,62.145,24.233,94.126
		c3.077,17.824,4.863,35.839,5.931,53.886c1.387,35.823,1.004,71.902-4.91,107.326c-7.35,52.707-23.324,104.074-45.883,152.205
		c-41.18,87.462-105.461,163.492-183.245,220.631c-47.844,34.372-99.754,63.308-155.043,83.795
		c-175.162,66.226-378.336,55.496-544.603-31.168c-29.526-14.843-57.186-33.017-84.257-51.894
		c-83.189-60.774-150.946-143.245-191.791-238.025c-18.446-42.774-31.439-87.924-38.199-134.014
		c-8.179-54.237-7.366-109.718,0.781-163.907c6.026-32.396,13.743-64.536,24.934-95.577c14.093-36.971,30.865-73.034,52.165-106.434
		c8.179-13.599,17.712-26.274,26.608-39.378c19.625-26.018,41.371-50.379,64.775-73.065
		c42.679-40.638,91.113-75.218,143.421-102.368C521.296,71.804,601.472,48.002,683.21,39.09 M927.596,595.379
		c-28.792,19.53-50.251,48.753-62.288,81.212c-18.924,49.693-22.798,105.158-9.853,156.828
		c11.256,42.79,30.849,84.417,62.145,116.254c19.594,20.072,44.002,35.473,70.738,44.034c26.656,8.402,55.162,9.948,82.822,6.584
		c12.706-2.328,25.779-4.049,37.752-9.183c11.622,10.857,26.768,17.521,42.519,19.466c21.124,2.886,43.811,0.383,62.288-10.873
		c8.306-5.006,15.879-12.595,17.872-22.4c2.073-8.816-1.514-18.254-7.812-24.504c-9.709-10.666-23.914-15.48-37.529-18.86
		c12.356-19.147,21.587-40.59,24.871-63.229c3.189-14.811,2.344-30.068,2.041-45.086c-2.312-27.804-8.306-55.321-18.302-81.372
		c-17.999-48.96-50.57-91.623-90.092-125.262c-20.247-16.883-42.455-32.029-67.406-41.005c-18.414-7.079-38.597-9.518-58.159-7.11
		C960.151,574.318,943.379,584.713,927.596,595.379 M444.532,595.395c-33.878,20.805-63.117,48.785-86.92,80.527
		c-24.584,32.794-41.451,71.041-50.427,110.961c-5.867,26.337-8.593,53.663-4.974,80.511c2.918,23.468,11.861,45.803,24.026,65.955
		c-16.007,4.528-33.703,10.427-42.886,25.413c-6.505,9.374-4.32,22.479,2.774,30.913c8.784,10.443,21.969,16.007,34.915,19.339
		c23.101,5.149,48.561,3.364,69.367-8.593c4.416-2.264,7.684-6.361,12.531-7.86c23.34,7.78,47.988,12.053,72.635,11.256
		c38.263-0.622,76.334-14.221,105.939-38.581c38.31-31.12,62.161-76.684,75.537-123.492c12.005-42.934,12.547-88.913,1.674-132.133
		c-6.186-25.636-16.214-50.602-31.359-72.316c-14.125-20.263-33.304-36.668-54.588-49.056
		c-11.271-7.031-23.563-12.659-36.604-15.448C504.014,567.734,471.794,578.926,444.532,595.395 M733.796,825.799
		c-8.848,3.555-17.075,9.757-21.236,18.509c-3.555,8.482-2.057,18.844,3.954,25.875c7.318,9.231,18.844,13.201,29.765,16.309
		c-0.51,16.453-0.638,32.922-1.291,49.375c-0.526,4.671,0,11.463-5.436,13.44c-7.876,1.036-16.485,0.638-23.356-3.778
		c-2.965-1.546-5.548-4.129-8.992-4.496c-3.89,6.106-2.136,14.189,1.164,20.199c6.154,11.766,18.908,18.685,31.694,20.614
		c15.146,1.881,31.088,3.396,45.66-2.184c10.347-3.428,19.211-11.574,22.575-22.049c2.184-6.01,0.781-13.232-3.507-17.967
		c-3.954-3.3-8.035,1.052-11.192,3.284c-5.979,4.99-14.364,6.632-21.826,4.528c-3.731-0.909-5.389-4.958-5.548-8.434
		c-1.339-15.448,0.255-30.913,0-46.377c0.144-2.2-0.287-4.544,0.654-6.6c6.935-1.562,14.014-3.125,20.152-6.951
		c9.374-5.134,17.569-14.986,16.676-26.242c-0.175-8.529-5.755-15.927-12.276-20.917
		C774.992,819.995,752.433,818.401,733.796,825.799z"/>
	<path stroke="#000000" d="M138.926,171.94c32.443-13.918,70.244-14.906,103.309-2.471c24.169,8.593,45.102,24.376,62.719,42.758
		c-23.404,22.686-45.15,47.047-64.775,73.065c-13.87-8.29-30.61-10.427-46.473-8.753c-22.766,3.093-43.858,16.341-56.549,35.488
		c-13.743,20.183-18.015,46.377-11.766,69.925c5.516,19.928,17.808,38.773,36.015,49.151c-11.192,31.04-18.908,63.181-24.934,95.577
		c-8.896-2.981-16.883-8.003-24.6-13.217c-40.064-27.948-66.226-73.097-75.409-120.638c-2.631-11-2.519-22.336-4.129-33.48v-18.924
		c1.61-8.768,1.084-17.776,2.997-26.513c4.591-27.007,14.014-53.344,28.808-76.477C81.947,208.928,107.933,185.269,138.926,171.94z"
		/>
	<path stroke="#000000" d="M1258.295,175.288c29.159-14.492,63.436-18.35,95.066-10.602c26.513,6.457,50.873,20.71,70.212,39.873
		c18.621,17.983,32.81,40.271,42.663,64.153c10.379,24.966,14.747,51.973,15.991,78.853c0.096,51.622-17.282,104.265-52.786,142.4
		c-14.508,15.975-32.539,28.266-51.75,37.88c-5.261-31.981-12.977-63.707-24.233-94.126c1.658-4.639,6.425-6.808,9.821-9.98
		c15.783-13.822,25.716-33.862,28.059-54.636c2.886-27.485-8.226-56.262-29.446-74.102c-16.086-13.759-37.72-20.773-58.813-18.669
		c-10.554,0.367-20.04,5.325-30.1,7.812c-18.908-25.716-40.638-49.199-63.229-71.694
		C1223.381,197.13,1239.834,184.248,1258.295,175.288z"/>
	<path fill="#F5B2B6" stroke="#F5B2B6" d="M137.156,312.029c12.69-19.147,33.783-32.396,56.549-35.488
		c15.863-1.674,32.603,0.462,46.473,8.753c-8.896,13.105-18.43,25.779-26.608,39.378c-21.299,33.4-38.071,69.462-52.165,106.434
		c-18.207-10.379-30.498-29.223-36.015-49.151C119.141,358.406,123.414,332.212,137.156,312.029z"/>
	<path fill="#F5B2B6" stroke="#F5B2B6" d="M1272.978,284.145c10.06-2.487,19.546-7.445,30.1-7.812
		c21.092-2.104,42.726,4.91,58.813,18.669c21.22,17.84,32.332,46.616,29.446,74.102c-2.344,20.773-12.276,40.813-28.059,54.636
		c-3.396,3.173-8.163,5.341-9.821,9.98C1334.597,380.072,1306.968,329.678,1272.978,284.145z"/>
	<path stroke="#000000" d="M927.596,595.379c15.783-10.666,32.555-21.06,51.607-24.504c19.562-2.407,39.745,0.032,58.159,7.11
		c24.95,8.976,47.158,24.121,67.406,41.005c39.522,33.639,72.093,76.302,90.092,125.262c9.996,26.05,15.99,53.568,18.302,81.372
		c0.303,15.018,1.148,30.275-2.041,45.086c-3.284,22.639-12.515,44.082-24.871,63.229c-20.805-2.934-43.045-1.977-61.937,8.099
		c-10.634,5.516-21.028,14.683-22.607,27.214c-1.244,8.035,2.806,15.48,7.206,21.857c-11.973,5.134-25.046,6.855-37.752,9.183
		c-27.661,3.364-56.166,1.817-82.822-6.584c-26.736-8.561-51.144-23.962-70.738-44.034c-31.296-31.838-50.889-73.464-62.145-116.254
		c-12.945-51.67-9.071-107.135,9.853-156.828C877.344,644.132,898.803,614.909,927.596,595.379 M1002.319,665.638
		c-18.254,3.635-36.461,10.251-50.857,22.368c-18.111,15.672-28.203,38.9-31.933,62.177c-5.58,28.777,0.861,58.813,14.077,84.656
		c12.356,24.44,31.28,46.537,56.389,58.398c26.258,12.674,56.995,13.232,84.815,5.739c20.853-5.963,40.734-18.446,51.415-37.816
		c14.843-26.672,15.624-58.526,12.212-88.147c-3.842-25.062-12.866-50.554-31.439-68.554c-20.502-19.61-47.748-30.243-74.963-36.636
		C1022.327,665.543,1012.251,664.427,1002.319,665.638z"/>
	<path stroke="#000000" d="M444.532,595.395c27.262-16.469,59.482-27.661,91.639-22.607c13.041,2.79,25.333,8.418,36.604,15.448
		c21.284,12.387,40.463,28.793,54.588,49.056c15.146,21.714,25.174,46.68,31.359,72.316c10.873,43.221,10.331,89.199-1.674,132.133
		c-13.376,46.808-37.226,92.372-75.537,123.492c-29.606,24.361-67.677,37.96-105.939,38.581
		c-24.647,0.797-49.295-3.475-72.635-11.256c1.068-5.692,5.931-9.805,6.776-15.576c1.961-9.741-2.567-19.705-9.741-26.194
		c-11.941-10.953-28.123-15.911-43.922-17.792c-9.932-1.355-19.865,0.478-29.813,0.351c-12.164-20.152-21.108-42.487-24.026-65.955
		c-3.619-26.847-0.893-54.173,4.974-80.511c8.976-39.921,25.843-78.167,50.427-110.961
		C381.414,644.179,410.653,616.2,444.532,595.395 M492.184,667.296c-31.2,5.899-63.053,16.915-86.17,39.554
		c-20.104,20.104-28.697,48.625-31.694,76.238c-1.754,26.975-0.367,55.608,13.169,79.698c11.271,20.582,32.746,33.862,55.178,39.171
		c26.943,6.871,56.485,5.58,81.754-6.568c25.126-11.829,44.034-33.958,56.421-58.382c15.082-29,20.534-63.516,12.244-95.369
		c-6.01-24.52-19.976-48.45-42.631-60.917C532.743,671.234,512.511,664.203,492.184,667.296z"/>
	<path fill="#FFFFFF" stroke="#FFFFFF" d="M1002.319,665.638c9.932-1.212,20.008-0.096,29.717,2.184
		c27.214,6.393,54.46,17.027,74.963,36.636c18.573,17.999,27.597,43.492,31.439,68.554c3.412,29.622,2.631,61.475-12.212,88.147
		c-10.682,19.37-30.562,31.853-51.415,37.816c-27.82,7.493-58.558,6.935-84.815-5.739c-25.11-11.861-44.034-33.958-56.389-58.398
		c-13.216-25.843-19.657-55.879-14.077-84.656c3.731-23.276,13.822-46.505,31.933-62.177
		C965.858,675.889,984.065,669.273,1002.319,665.638 M998.939,673.163c-17.776,4.209-35.68,11.463-48.45,24.982
		c-11.016,11.511-17.68,26.401-22.033,41.547c-6.377,25.174-5.373,52.467,4.416,76.637c6.855,19.036,17.904,36.525,31.965,51.049
		c2.407,2.407,4.958,4.974,8.37,5.851c10.156,2.838,20.215,6.106,30.594,8.051c15.879,3.619,32.699,2.838,48.163-2.248
		c24.376-9.151,46.202-26.433,58.637-49.518c10.06-18.924,11.447-41.212,8.147-62.065c-4.719-28.346-19.386-54.62-39.729-74.755
		c-7.206-5.07-15.704-7.987-23.834-11.224C1037.281,675.188,1018.023,669.528,998.939,673.163z"/>
	<path fill="#FFFFFF" stroke="#FFFFFF" d="M492.184,667.296c20.327-3.093,40.558,3.938,58.271,13.424
		c22.655,12.467,36.62,36.397,42.631,60.917c8.29,31.854,2.838,66.369-12.244,95.369c-12.387,24.424-31.296,46.553-56.421,58.382
		c-25.269,12.148-54.811,13.44-81.754,6.568c-22.431-5.309-43.906-18.589-55.178-39.171c-13.535-24.089-14.922-52.723-13.169-79.698
		c2.997-27.613,11.59-56.134,31.694-76.238C429.131,684.211,460.984,673.195,492.184,667.296 M487.338,675.268
		c-16.644,3.89-33.209,8.705-48.402,16.676c-5.357,2.949-8.96,8.099-12.977,12.563c-21.188,25.062-33.846,57.92-31.949,90.953
		c0.957,18.844,8.067,37.322,20.359,51.702c17.967,21.284,44.129,36.86,72.38,38.103c19.769,0.494,39.076-5.229,57.569-11.558
		c9.183-7.812,16.756-17.457,23.276-27.565c14.412-23.165,23.691-50.299,22.24-77.848c-0.909-22.639-7.987-45.532-21.921-63.596
		c-10.666-13.822-26.688-22.176-43.093-27.198C512.942,672.749,499.725,672.956,487.338,675.268z"/>
	<path stroke="#000000" d="M998.939,673.163c19.083-3.635,38.342,2.025,56.246,8.306c8.131,3.236,16.628,6.154,23.834,11.224
		c20.343,20.136,35.01,46.409,39.729,74.755c3.3,20.853,1.913,43.141-8.147,62.065c-12.435,23.085-34.261,40.367-58.637,49.518
		c-15.464,5.086-32.284,5.867-48.163,2.248c-10.379-1.945-20.438-5.213-30.594-8.051c-3.412-0.877-5.963-3.444-8.37-5.851
		c-14.061-14.524-25.11-32.013-31.965-51.049c-9.789-24.169-10.793-51.463-4.416-76.637c4.352-15.146,11.016-30.036,22.033-41.547
		C963.259,684.626,981.163,677.372,998.939,673.163 M1051.757,718.329c-9.725,3.858-17.282,13.87-16.389,24.616
		c-0.191,14.779,15.432,27.39,29.877,23.818c12.898-2.184,22.527-15.417,20.263-28.378
		C1083.739,723.032,1066.042,712.781,1051.757,718.329z"/>
	<path stroke="#000000" d="M487.338,675.268c12.388-2.312,25.604-2.519,37.481,2.232c16.405,5.022,32.427,13.376,43.093,27.198
		c13.934,18.063,21.012,40.957,21.921,63.596c1.451,27.549-7.828,54.683-22.24,77.848c-6.521,10.108-14.093,19.753-23.276,27.565
		c-18.494,6.329-37.8,12.053-57.569,11.558c-28.25-1.243-54.412-16.82-72.38-38.103c-12.292-14.38-19.402-32.858-20.359-51.702
		c-1.897-33.033,10.761-65.891,31.949-90.953c4.018-4.464,7.621-9.613,12.977-12.563
		C454.129,683.972,470.694,679.158,487.338,675.268 M517.581,718.154c-11.335,3.731-19.004,16.15-16.756,27.979
		c1.817,13.806,16.756,24.121,30.323,20.518c13.615-2.678,23.005-17.967,18.812-31.28
		C546.565,721.82,530.718,713.355,517.581,718.154z"/>
	<path fill="#FFFFFF" stroke="#FFFFFF" d="M517.581,718.154c13.137-4.799,28.984,3.667,32.38,17.218
		c4.193,13.312-5.197,28.601-18.812,31.28c-13.567,3.603-28.506-6.712-30.323-20.518
		C498.577,734.303,506.246,721.884,517.581,718.154z"/>
	<path fill="#FFFFFF" stroke="#FFFFFF" d="M1051.757,718.329c14.285-5.548,31.981,4.703,33.751,20.056
		c2.264,12.961-7.365,26.194-20.263,28.378c-14.444,3.571-30.068-9.039-29.877-23.818
		C1034.476,732.199,1042.032,722.187,1051.757,718.329z"/>
	<path stroke="#000000" d="M733.796,825.799c18.637-7.397,41.196-5.803,57.633,6.138c6.521,4.99,12.101,12.388,12.276,20.917
		c0.893,11.256-7.302,21.108-16.676,26.242c-6.138,3.826-13.216,5.389-20.152,6.951c-0.941,2.057-0.51,4.4-0.654,6.6
		c0.255,15.464-1.339,30.929,0,46.377c0.159,3.476,1.818,7.525,5.548,8.434c7.461,2.104,15.847,0.462,21.826-4.528
		c3.157-2.232,7.238-6.584,11.192-3.284c4.289,4.735,5.692,11.957,3.507,17.967c-3.364,10.474-12.228,18.621-22.575,22.049
		c-14.572,5.58-30.514,4.065-45.66,2.184c-12.786-1.929-25.54-8.848-31.694-20.614c-3.3-6.01-5.054-14.093-1.164-20.199
		c3.444,0.367,6.026,2.949,8.992,4.496c6.871,4.416,15.48,4.815,23.356,3.778c5.436-1.977,4.91-8.768,5.436-13.44
		c0.654-16.453,0.781-32.922,1.291-49.375c-10.921-3.109-22.447-7.079-29.765-16.309c-6.01-7.031-7.509-17.393-3.954-25.875
		C716.721,835.556,724.948,829.354,733.796,825.799z"/>
	<path fill="#F5B2B6" stroke="#F5B2B6" d="M326.237,933.348c9.948,0.128,19.881-1.706,29.813-0.351
		c15.799,1.881,31.981,6.839,43.922,17.792c7.174,6.489,11.702,16.453,9.741,26.194c-0.845,5.771-5.707,9.884-6.776,15.576
		c-4.847,1.499-8.115,5.596-12.531,7.86c-20.805,11.957-46.266,13.743-69.367,8.593c-12.945-3.332-26.13-8.896-34.915-19.339
		c-7.095-8.434-9.279-21.539-2.774-30.913C292.534,943.775,310.23,937.876,326.237,933.348z"/>
	<path fill="#F5B2B6" stroke="#F5B2B6" d="M1124.313,942.037c18.892-10.076,41.132-11.032,61.937-8.099
		c13.615,3.38,27.82,8.194,37.529,18.86c6.297,6.25,9.884,15.688,7.812,24.504c-1.993,9.805-9.566,17.394-17.872,22.4
		c-18.478,11.255-41.164,13.758-62.288,10.873c-15.751-1.945-30.897-8.609-42.519-19.466c-4.4-6.377-8.45-13.822-7.206-21.857
		C1103.284,956.72,1113.679,947.553,1124.313,942.037z"/>
	<path stroke="#000000" d="M994.539,1145.689c55.289-20.486,107.199-49.422,155.043-83.795c1.451,7.142,4.257,13.902,6.313,20.885
		c7.35,24.759,12.834,50.028,20.63,74.676c-7.971,0.909-15.225,4.448-22.718,7.031c-24.026,8.258-47.669,17.585-71.742,25.684
		c-3.459,0.67-4.48,4.177-5.644,7.015c-15.751,41.467-30.116,83.54-40.399,126.729c-16.549,67.788-22.607,137.458-32.874,206.33
		c-0.239,4.879-3.252,10.49-0.191,14.922c-1.738,1.515-2.918,3.491-3.204,5.803c-3.667,17.665-7.429,36.461-19.434,50.602
		c-8.96,10.777-22.862,15.48-36.19,18.079c-11.335,2.471-23.021,3.523-34.596,2.503c-9.039-0.797-16.564-6.919-25.652-7.509
		c6.744-16.102,18.509-31.009,18.956-49.072c0.845-3.428-2.567-5.994-5.548-4.097c-1.658,5.229-1.068,10.969-3.173,16.134
		c-4.289,11.096-9.9,21.634-15.672,32.045c-1.801,3.029-2.519,6.505-2.981,9.996c-7.509,7.095-16.262,12.738-26.098,16.022h-9.39
		c-11.957-4.607-24.616-7.573-35.728-14.205c-5.006-16.963-14.125-33.001-14.604-51.064c-0.606-8.035,2.168-15.735,2.79-23.627
		c-1.02-2.28-3.316-1.706-5.197-1.116c-5.102,13.535-5.5,28.697-1.371,42.567c2.615,10.14,6.935,19.737,10.044,29.733
		c-5.771-2.79-12.292-2.902-18.557-3.173c-2.726-6.329-10.14-7.158-15.417-10.427c-11.319-6.026-15.289-19.339-18.398-30.865
		c-7.126-31.343-8.115-63.835-5.979-95.816c2.28-30.626,10.156-60.439,17.936-90.029c9.119-30.387,20.088-60.263,33.416-89.056
		c2.71-6.521,7.589-12.387,8.45-19.53c-6.297-1.419-12.738-2.057-19.099-3.077c-9.964-1.371-20.088-3.89-30.164-1.849
		c-10.506,1.993-21.092,3.396-31.678,4.91c1.244,4.528,3.587,8.641,5.676,12.818c11.702,23.898,21.284,48.769,29.733,73.99
		c1.515,3.794,0.829,7.923-0.287,11.734c-10.315,36.413-19.673,73.48-21.252,111.471c-0.877,27.469,0.191,55.21,5.947,82.185
		c3.22,13.456,7.605,27.613,18.334,37.099c-10.044,4.544-20.773,6.648-31.614,8.115c-0.829-25.285-2.838-51.288-13.567-74.564
		c-1.897-0.67-4.942-0.909-5.261,1.802c0.191,3.635,1.786,6.999,2.886,10.427c7.652,20.997,8.577,43.587,9.422,65.684
		c-7.541,1.961-14.333,5.883-21.555,8.721c-6.823,2.854-14.205,4.097-20.965,7.142h-9.438c-6.281-2.806-12.882-5.277-18.207-9.773
		c-4.91-4.081-9.502-8.832-15.704-10.905c-8.418-13.36-15.863-27.613-19.833-42.966c-1.993-7.015-2.615-14.317-4.081-21.443
		c-1.658-0.462-3.316-0.718-5.022-0.781c-1.275,3.412-0.558,7.095-0.032,10.602c1.849,11.064,4.432,22.129,9.358,32.284
		c3.603,8.051,8.497,15.512,11.606,23.818c-12.961,6.664-27.82,7.047-41.961,5.006c-16.485-2.471-34.388-6.377-46.122-19.179
		c-13.248-15.656-17.138-36.573-20.757-56.15c-7.445-40.064-10.602-80.75-17.075-120.957
		c-6.712-51.24-16.804-102.129-32.252-151.472c-7.94-26.863-17.776-53.121-27.613-79.347c-0.781-3.428-4.703-3.986-7.445-5.197
		c-30.482-10.395-60.359-22.527-91.049-32.332c2.997-12.116,6.887-23.994,9.757-36.142c5.436-19.482,9.486-39.522,17.633-58.111
		c27.071,18.876,54.731,37.051,84.257,51.894C616.203,1201.186,819.377,1211.915,994.539,1145.689z"/>
	<path stroke="#000000" d="M103.39,1166.239c12.069-13.185,30.514-19.881,48.243-17.904c21.236,1.706,39.092,14.317,57.729,23.324
		c28.41,14.572,60.79,19.912,92.484,19.131c13.95,23.707,28.84,46.871,42.2,70.929c14.46,26.066,26.879,53.297,36.589,81.499
		c10.506,30.626,19.147,62.097,22.384,94.397c1.913,12.212,2.36,24.568,3.157,36.875c1.626,16.277,3.778,32.651,2.631,49.04
		c-35.6-1.945-70.196,7.796-104.52,15.783c-29.303,6.919-58.605,13.822-87.972,20.423c-21.443,4.847-44.656,9.056-65.843,0.877
		c-21.618-7.748-36.907-26.449-47.812-45.899c14.97,1.626,29.669-5.277,39.905-15.927c18.844-19.115,27.788-45.644,31.965-71.631
		c4.48-32.22,1.323-65.891-11.558-95.943c-7.142-15.975-17.585-31.28-32.858-40.431c-10.267-6.234-23.101-8.194-34.659-4.767
		c-11.877,3.523-21.826,11.734-29.414,21.347c0.909-25.03,3.507-50.044,8.179-74.66C79.348,1209.061,86.331,1184.27,103.39,1166.239
		 M98.144,1194.522c-6.026,2.041-9.757,7.764-12.18,13.328c-5.181,12.515-5.963,26.608-3.284,39.809
		c1.802,7.206,4.799,14.428,10.076,19.817c4.416,4.56,12.244,5.006,17.043,0.781c7.605-6.536,10.49-16.756,11.877-26.321
		c1.562-14.094,0.287-29.446-8.274-41.26C110.038,1195.988,103.963,1192.513,98.144,1194.522 M154.071,1218.675
		c-6.202,2.407-10.251,8.354-12.659,14.301c-4.767,12.053-5.309,25.572-2.599,38.167c2.088,7.397,5.245,15.13,11.447,20.04
		c5.548,4.177,13.695,2.519,17.904-2.758c9.103-10.411,10.57-25.174,9.741-38.438c-0.239-9.47-3.412-18.94-9.422-26.29
		C165.12,1219.456,159.396,1217.096,154.071,1218.675z"/>
	<path stroke="#000000" d="M1340.735,1153.724c16.118-6.776,35.122-8.115,51.32-0.861c14.157,6.154,24.839,18.302,31.933,31.758
		c11.447,21.507,16.07,45.787,19.689,69.67c2.152,17.17,4.225,34.404,4.209,51.75c-8.179-8.131-16.899-16.437-28.282-19.721
		c-16.054-5.373-33.846,0.733-45.755,12.085c-18.35,17.266-27.948,41.85-32.762,66.13c-6.01,34.022-4.033,70.18,9.677,102.177
		c6.871,15.719,16.533,31.072,31.264,40.494c8.593,5.755,19.083,8.37,29.398,7.653c-10.745,19.562-26.353,38.023-47.844,45.899
		c-19.052,7.286-39.984,4.448-59.418,0.351c-33.735-7.429-67.342-15.48-100.981-23.388c-32.109-7.7-64.679-15.959-98-14.157
		c-1.004-19.068,2.344-37.928,3.3-56.9c2.312-45.293,12.356-90.044,28.442-132.404c12.977-36.78,31.63-71.232,51.909-104.457
		c7.796-12.977,15.975-25.7,23.292-38.948c25.301,0.733,50.841-2.71,74.692-11.335
		C1305.613,1172.712,1322.385,1161.504,1340.735,1153.724 M1408.635,1194.585c-5.15,1.833-8.609,6.489-10.985,11.176
		c-6.234,12.371-6.712,26.832-4.512,40.287c2.009,8.689,5.261,18.095,12.993,23.356c5.357,3.619,12.834,1.467,16.66-3.412
		c8.609-10.028,10.506-24.01,9.948-36.796c0-11.144-3.077-22.941-10.969-31.152
		C1418.535,1194.394,1413.226,1192.975,1408.635,1194.585 M1352.979,1218.659c-6.393,2.168-10.299,8.338-12.77,14.253
		c-5.612,14.444-5.771,30.961-0.271,45.453c2.152,5.229,5.245,10.49,10.203,13.519c5.134,3.093,12.148,1.738,16.038-2.742
		c7.461-7.924,10.411-19.147,10.697-29.797c0.526-12.037-1.483-24.823-8.816-34.707
		C1364.713,1219.966,1358.702,1216.953,1352.979,1218.659z"/>
	<path fill="#FFFFFF" stroke="#FFFFFF" d="M338.289,1156.881c30.69,9.805,60.566,21.937,91.049,32.332
		c2.742,1.212,6.664,1.77,7.445,5.197c9.837,26.226,19.673,52.484,27.613,79.347c15.448,49.343,25.54,100.232,32.252,151.472
		c6.473,40.207,9.629,80.893,17.075,120.957c-33.894-11.526-68.713-22.686-104.919-22.655c1.148-16.389-1.004-32.762-2.631-49.04
		c-0.797-12.308-1.244-24.663-3.157-36.875c-3.236-32.3-11.877-63.771-22.384-94.397c-9.709-28.203-22.128-55.433-36.589-81.499
		c-13.36-24.058-28.25-47.222-42.2-70.929c7.047-0.765,14.38-2.264,20.008-6.855
		C330.462,1177.256,334.575,1166.749,338.289,1156.881z"/>
	<path fill="#FFFFFF" stroke="#FFFFFF" d="M1153.807,1164.486c7.493-2.583,14.747-6.122,22.718-7.031
		c2.726,8.721,6.568,17.41,13.025,24.058c5.931,6.01,14.46,8.211,22.575,9.342c-7.318,13.248-15.496,25.971-23.292,38.948
		c-20.279,33.225-38.932,67.677-51.909,104.457c-16.086,42.36-26.13,87.111-28.442,132.404c-0.957,18.972-4.305,37.832-3.3,56.9
		c-35.249-0.112-69.064,10.905-102.225,21.602c-3.061-4.432-0.048-10.044,0.191-14.922c10.267-68.872,16.325-138.542,32.874-206.33
		c10.283-43.189,24.647-85.262,40.399-126.729c1.164-2.838,2.184-6.345,5.644-7.015
		C1106.138,1182.07,1129.781,1172.744,1153.807,1164.486z"/>
	<path fill="#F5B2B6" stroke="#F5B2B6" d="M98.144,1194.522c5.819-2.009,11.893,1.467,15.257,6.154
		c8.561,11.813,9.837,27.166,8.274,41.26c-1.387,9.566-4.273,19.785-11.877,26.321c-4.799,4.225-12.627,3.778-17.043-0.781
		c-5.277-5.389-8.274-12.611-10.076-19.817c-2.678-13.2-1.897-27.294,3.284-39.809C88.387,1202.286,92.118,1196.562,98.144,1194.522
		z"/>
	<path fill="#F5B2B6" stroke="#F5B2B6" d="M1408.635,1194.585c4.591-1.61,9.9-0.191,13.137,3.46
		c7.892,8.211,10.969,20.008,10.969,31.152c0.558,12.786-1.339,26.768-9.948,36.796c-3.826,4.879-11.303,7.031-16.66,3.412
		c-7.732-5.261-10.985-14.667-12.993-23.356c-2.2-13.456-1.722-27.916,4.512-40.287
		C1400.026,1201.074,1403.485,1196.419,1408.635,1194.585z"/>
	<path fill="#F5B2B6" stroke="#F5B2B6" d="M154.071,1218.675c5.325-1.578,11.048,0.781,14.412,5.022
		c6.01,7.35,9.183,16.82,9.422,26.29c0.829,13.264-0.638,28.027-9.741,38.438c-4.209,5.277-12.356,6.935-17.904,2.758
		c-6.202-4.91-9.358-12.643-11.447-20.04c-2.71-12.595-2.168-26.114,2.599-38.167C143.82,1227.029,147.87,1221.082,154.071,1218.675
		z"/>
	<path fill="#F5B2B6" stroke="#F5B2B6" d="M1352.979,1218.659c5.724-1.706,11.734,1.307,15.082,5.979
		c7.334,9.885,9.342,22.671,8.816,34.707c-0.287,10.65-3.236,21.873-10.697,29.797c-3.89,4.48-10.905,5.835-16.038,2.742
		c-4.958-3.029-8.051-8.29-10.203-13.519c-5.5-14.492-5.341-31.009,0.271-45.453
		C1342.68,1226.997,1346.586,1220.827,1352.979,1218.659z"/>
	<path fill="#FFFFFF" stroke="#FFFFFF" d="M716.419,1279.05c10.586-1.515,21.172-2.917,31.678-4.91
		c10.076-2.041,20.199,0.478,30.164,1.849c6.361,1.02,12.802,1.658,19.099,3.077c-0.861,7.142-5.739,13.009-8.45,19.53
		c-13.328,28.792-24.297,58.669-33.416,89.056c-7.78,29.59-15.656,59.403-17.936,90.029c-2.136,31.981-1.148,64.472,5.979,95.816
		c3.109,11.526,7.079,24.839,18.398,30.865c5.277,3.268,12.69,4.097,15.417,10.427c-8.179,3.81-15.592-3.46-22.782-6.441
		c-10.729-9.486-15.114-23.643-18.334-37.099c-5.755-26.975-6.823-54.715-5.947-82.185c1.578-37.991,10.937-75.058,21.252-111.471
		c1.116-3.81,1.802-7.939,0.287-11.734c-8.45-25.221-18.031-50.092-29.733-73.99C720.006,1287.691,717.662,1283.578,716.419,1279.05
		z"/>
	<path fill="#F5B2B6" stroke="#F5B2B6" d="M95.45,1286.017c11.558-3.428,24.392-1.467,34.659,4.767
		c15.273,9.151,25.716,24.456,32.858,40.431c12.882,30.052,16.038,63.723,11.558,95.943c-4.177,25.987-13.121,52.515-31.965,71.631
		c-10.235,10.65-24.934,17.553-39.905,15.927c-3.173-5.612-5.963-11.431-8.593-17.298c-25.875-59.61-30.371-125.868-28.027-190.053
		C73.625,1297.751,83.573,1289.54,95.45,1286.017z"/>
	<path fill="#F5B2B6" stroke="#F5B2B6" d="M1373.848,1298.404c11.909-11.351,29.701-17.457,45.755-12.085
		c11.383,3.284,20.104,11.59,28.282,19.721c0.303,3.587,0.558,7.19,0.654,10.809c0.51,36.541-0.255,73.368-7.302,109.351
		c-5.755,30.69-14.301,61.348-29.813,88.657c-10.315,0.717-20.805-1.897-29.398-7.653c-14.731-9.422-24.392-24.775-31.264-40.494
		c-13.711-31.997-15.688-68.155-9.677-102.177C1345.9,1340.254,1355.498,1315.67,1373.848,1298.404z"/>
	<path fill="#FFFFFF" stroke="#FFFFFF" d="M704.127,1543.699c0.319-2.71,3.364-2.471,5.261-1.802
		c10.729,23.276,12.738,49.279,13.567,74.564c-0.287,0.67-0.845,1.993-1.132,2.662c-1.786,0.335-3.587,0.558-5.389,0.686
		c-0.845-22.097-1.77-44.687-9.422-65.684C705.912,1550.698,704.318,1547.334,704.127,1543.699z"/>
	<path fill="#FFFFFF" stroke="#FFFFFF" d="M787.236,1545.66c1.881-0.59,4.177-1.164,5.197,1.116
		c-0.622,7.892-3.396,15.592-2.79,23.627c0.478,18.063,9.598,34.101,14.604,51.064c-1.61,0.43-3.22,0.845-4.831,1.212
		c-1.323-1.483-2.439-3.109-3.507-4.719c-3.109-9.996-7.429-19.594-10.044-29.733
		C781.736,1574.357,782.134,1559.195,787.236,1545.66z"/>
	<path fill="#FFFFFF" stroke="#FFFFFF" d="M601.631,1549.805c1.706,0.064,3.364,0.319,5.022,0.781
		c1.467,7.126,2.089,14.428,4.081,21.443c3.97,15.353,11.415,29.606,19.833,42.966c-1.259,0.909-2.519,1.786-3.81,2.662
		c-1.419-0.319-2.822-0.702-4.193-1.148c-3.109-8.306-8.003-15.767-11.606-23.818c-4.926-10.156-7.509-21.22-9.358-32.284
		C601.073,1556.899,600.356,1553.217,601.631,1549.805z"/>
	<path fill="#FFFFFF" stroke="#FFFFFF" d="M897.289,1561.475c2.981-1.897,6.393,0.67,5.548,4.097
		c-0.446,18.063-12.212,32.97-18.956,49.072c-1.228,1.594-2.359,3.316-3.874,4.703c-1.132,0.064-3.412,0.223-4.544,0.303
		c0.462-3.491,1.18-6.967,2.981-9.996c5.771-10.411,11.383-20.949,15.672-32.045C896.22,1572.443,895.63,1566.704,897.289,1561.475z
		"/>
</g>
</svg>
